<?xml version="1.0" encoding="UTF-8" standalone="no"?>
<svg width="673px" height="392px" viewBox="0 0 673 392" version="1.1" xmlns="http://www.w3.org/2000/svg" xmlns:xlink="http://www.w3.org/1999/xlink">
    <!-- Generator: Sketch 46.2 (44496) - http://www.bohemiancoding.com/sketch -->
    <title>ge_overview</title>
    <desc>Created with Sketch.</desc>
    <defs></defs>
    <g id="Training-Diagrams" stroke="none" stroke-width="1" fill="none" fill-rule="evenodd">
        <g id="ge_overview">
            <rect id="Rectangle-path" stroke="#000000" fill="#FFFFFF" fill-rule="nonzero" x="68" y="31" width="336" height="201" rx="3"></rect>
            <g id="Group" transform="translate(87.000000, 39.000000)" font-size="16" font-family="Lato, sans-serif" fill="#000000" font-weight="normal">
                <g id="Gradle-Enterprise">
                    <text>
                        <tspan x="0.5" y="12">Gradle Enterprise</tspan>
                    </text>
                </g>
            </g>
            <g id="Group" transform="translate(532.000000, 87.000000)" font-size="14" font-family="Lato, sans-serif" fill="#000000" font-weight="normal">
                <g id="Build-cache-remote-n">
                    <text>
                        <tspan x="0" y="12">Build cache </tspan>
                        <tspan x="0" y="27">remote nodes</tspan>
                    </text>
                </g>
            </g>
            <rect id="Rectangle-path" stroke="#000000" fill="#FFFFFF" fill-rule="nonzero" x="86" y="66" width="132" height="126"></rect>
            <g id="Group" transform="translate(117.000000, 117.000000)" font-size="14" font-family="Lato, sans-serif" fill="#000000" font-weight="normal">
                <g id="Build-scans">
                    <text>
                        <tspan x="0" y="14">Build scans</tspan>
                    </text>
                </g>
            </g>
            <g id="Group" transform="translate(281.000000, 120.000000)" font-size="14" font-family="Lato, sans-serif" fill="#000000" font-weight="normal">
                <g id="Build-cache">
                    <text>
                        <tspan x="0.5" y="14">Build cache</tspan>
                    </text>
                </g>
            </g>
            <path d="M381.464696,131 L467.501453,131" id="Shape" stroke="#000000" stroke-linecap="round" stroke-linejoin="round" stroke-dasharray="5"></path>
            <g id="computer" transform="translate(126.000000, 318.000000)" stroke-linecap="round" stroke="#000000" stroke-linejoin="round">
                <g id="com-code">
                    <path d="M21,42 L20,46" id="Stroke-299"></path>
                    <path d="M32,46 L31,42" id="Stroke-300"></path>
                    <path d="M52,28 L0,28" id="Stroke-301"></path>
                    <path d="M49,0 L3,0 C1.343,0 0,1.343 0,3 L0,35 C0,36.657 1.343,38 3,38 L49,38 C50.657,38 52,36.657 52,35 L52,3 C52,1.343 50.657,0 49,0 L49,0 Z" id="Stroke-302"></path>
                    <path d="M27,33 C27,33.552 26.553,34 26,34 C25.447,34 25,33.552 25,33 C25,32.448 25.447,32 26,32 C26.553,32 27,32.448 27,33 L27,33 Z" id="Stroke-303"></path>
                    <path d="M22,48 L30,48" id="Stroke-304"></path>
                    <path d="M20,46 C20,47.104 20.896,48 22,48" id="Stroke-305"></path>
                    <path d="M32,46 C32,47.104 31.104,48 30,48" id="Stroke-306"></path>
                </g>
            </g>
            <g id="computer" transform="translate(280.000000, 318.000000)" stroke-linecap="round" stroke="#000000" stroke-linejoin="round">
                <g id="com-code">
                    <path d="M21,42 L20,46" id="Stroke-299"></path>
                    <path d="M32,46 L31,42" id="Stroke-300"></path>
                    <path d="M52,28 L0,28" id="Stroke-301"></path>
                    <path d="M49,0 L3,0 C1.343,0 0,1.343 0,3 L0,35 C0,36.657 1.343,38 3,38 L49,38 C50.657,38 52,36.657 52,35 L52,3 C52,1.343 50.657,0 49,0 L49,0 Z" id="Stroke-302"></path>
                    <path d="M27,33 C27,33.552 26.553,34 26,34 C25.447,34 25,33.552 25,33 C25,32.448 25.447,32 26,32 C26.553,32 27,32.448 27,33 L27,33 Z" id="Stroke-303"></path>
                    <path d="M22,48 L30,48" id="Stroke-304"></path>
                    <path d="M20,46 C20,47.104 20.896,48 22,48" id="Stroke-305"></path>
                    <path d="M32,46 C32,47.104 31.104,48 30,48" id="Stroke-306"></path>
                </g>
            </g>
            <g id="computer" transform="translate(551.000000, 318.000000)" stroke-linecap="round" stroke="#000000" stroke-linejoin="round">
                <g id="com-code">
                    <path d="M21,42 L20,46" id="Stroke-299"></path>
                    <path d="M32,46 L31,42" id="Stroke-300"></path>
                    <path d="M52,28 L0,28" id="Stroke-301"></path>
                    <path d="M49,0 L3,0 C1.343,0 0,1.343 0,3 L0,35 C0,36.657 1.343,38 3,38 L49,38 C50.657,38 52,36.657 52,35 L52,3 C52,1.343 50.657,0 49,0 L49,0 Z" id="Stroke-302"></path>
                    <path d="M27,33 C27,33.552 26.553,34 26,34 C25.447,34 25,33.552 25,33 C25,32.448 25.447,32 26,32 C26.553,32 27,32.448 27,33 L27,33 Z" id="Stroke-303"></path>
                    <path d="M22,48 L30,48" id="Stroke-304"></path>
                    <path d="M20,46 C20,47.104 20.896,48 22,48" id="Stroke-305"></path>
                    <path d="M32,46 C32,47.104 31.104,48 30,48" id="Stroke-306"></path>
                </g>
            </g>
            <polygon id="Polygon" stroke="#000000" points="316 61 376 95.75 376 165.25 316 200 256 165.25 256 95.75"></polygon>
            <polygon id="Polygon-Copy-3" stroke="#000000" fill="#FFFFFF" points="547 58 616.282032 127.5 547 197 477.717968 127.5"></polygon>
            <polygon id="Polygon-Copy-2" stroke="#000000" fill="#FFFFFF" points="557 58 626.282032 127.5 557 197 487.717968 127.5"></polygon>
            <polygon id="Polygon" stroke="#000000" fill="#FFFFFF" points="567 59 636.282032 128.5 567 198 497.717968 128.5"></polygon>
            <polygon id="Polygon-Copy" stroke="#000000" fill="#FFFFFF" points="577 60 646.282032 129.5 577 199 507.717968 129.5"></polygon>
            <text id="Build-cache-remore-n" fill="#000000" font-family="Lato, sans-serif" font-size="14" font-weight="normal">
                <tspan x="544.3355" y="124">Build cache</tspan>
                <tspan x="537.2585" y="141">remote nodes</tspan>
            </text>
            <g id="Stroke-622-+-Stroke-623-Copy-2" transform="translate(305.000000, 205.000000)" stroke="#0B0C0A" stroke-linecap="round" stroke-linejoin="round">
                <path d="M11,104 L11,0.498792278" id="Stroke-622"></path>
                <polyline id="Stroke-623" points="0 91.5 11 104 22 91.5"></polyline>
                <polyline id="Stroke-623-Copy" transform="translate(11.000000, 6.250000) rotate(-180.000000) translate(-11.000000, -6.250000) " points="0 0 11 12.5 22 0"></polyline>
            </g>
            <g id="Stroke-622-+-Stroke-623-Copy-5" transform="translate(240.982756, 257.982756) rotate(-45.000000) translate(-240.982756, -257.982756) translate(229.982756, 186.982756)" stroke="#0B0C0A" stroke-linecap="round" stroke-linejoin="round">
                <path d="M11,141.056419 L11,0.498792278" id="Stroke-622"></path>
                <polyline id="Stroke-623-Copy" transform="translate(11.000000, 6.250000) rotate(-180.000000) translate(-11.000000, -6.250000) " points="2.84217094e-14 0 11 12.5 22 0"></polyline>
            </g>
            <g id="Stroke-622-+-Stroke-623-Copy-4" transform="translate(141.000000, 205.000000)" stroke="#0B0C0A" stroke-linecap="round" stroke-linejoin="round">
                <path d="M11,104 L11,0.498792278" id="Stroke-622"></path>
                <polyline id="Stroke-623-Copy" transform="translate(11.000000, 6.250000) rotate(-180.000000) translate(-11.000000, -6.250000) " points="0 0 11 12.5 22 0"></polyline>
            </g>
            <g id="Stroke-622-+-Stroke-623-Copy-3" transform="translate(566.000000, 205.000000)" stroke="#0B0C0A" stroke-linecap="round" stroke-linejoin="round">
                <path d="M11,104 L11,0.498792278" id="Stroke-622"></path>
                <polyline id="Stroke-623" points="0 91.5 11 104 22 91.5"></polyline>
                <polyline id="Stroke-623-Copy" transform="translate(11.000000, 6.250000) rotate(-180.000000) translate(-11.000000, -6.250000) " points="0 0 11 12.5 22 0"></polyline>
            </g>
            <polyline id="Stroke-623-Copy" stroke="#0B0C0A" stroke-linecap="round" stroke-linejoin="round" transform="translate(460.250000, 131.000000) rotate(-90.000000) translate(-460.250000, -131.000000) " points="449.25 124.75 460.25 137.25 471.25 124.75"></polyline>
            <polyline id="Stroke-623-Copy-2" stroke="#0B0C0A" stroke-linecap="round" stroke-linejoin="round" transform="translate(387.250000, 131.000000) rotate(-270.000000) translate(-387.250000, -131.000000) " points="376.25 124.75 387.25 137.25 398.25 124.75"></polyline>
        </g>
    </g>
</svg>
